<svg width="132" height="132" viewBox="0 0 132 132" fill="none" xmlns="http://www.w3.org/2000/svg">
<g filter="url(#filter0_d_1015_48)">
<rect x="16" y="12" width="100" height="100" rx="50" fill="white"/>
<circle cx="66" cy="62" r="45" fill="#FF6F00"/>
<path d="M85.8873 42.1126C81.4076 37.6342 75.5476 34.7985 69.2559 34.0645C62.9642 33.3305 56.6089 34.7411 51.2186 38.0681L51.1248 38.123L55.8282 46.2559C53.6001 47.7011 51.7015 49.5998 50.2563 51.8281L43.75 48.0714C45.5804 45.159 47.96 42.6306 50.7563 40.6272L49.6664 39.1016C46.0173 41.7013 43.0429 45.1363 40.9917 49.1197C38.9404 53.1032 37.8718 57.5195 37.875 62C37.875 67.5626 39.5245 73.0002 42.6149 77.6254C45.7053 82.2505 50.0978 85.8553 55.237 87.9841C60.3762 90.1128 66.0311 90.6698 71.4869 89.5846C76.9426 88.4994 81.954 85.8207 85.8873 81.8874C88.499 79.2758 90.5707 76.1753 91.9841 72.763C93.3975 69.3507 94.125 65.6934 94.125 62C94.125 58.3066 93.3975 54.6493 91.9841 51.237C90.5707 47.8247 88.499 44.7242 85.8873 42.1126ZM84.7266 62.9375H92.2317C92.1006 66.9103 91.0628 70.8005 89.1979 74.3108L82.6843 70.5501C83.9006 68.1874 84.597 65.5917 84.7266 62.9375ZM84.7266 61.0625C84.597 58.4083 83.9006 55.8126 82.6843 53.4499L89.1979 49.6892C91.0628 53.1995 92.1006 57.0897 92.2317 61.0625H84.7266ZM88.2573 48.0672L81.7437 51.8281C80.2985 49.6 78.4 47.7015 76.1719 46.2563L79.9325 39.7427C83.2946 41.8606 86.1391 44.7052 88.2571 48.0672H88.2573ZM66.9375 35.7683C70.9103 35.8995 74.8005 36.9372 78.3108 38.8021L74.5502 45.3157C72.1875 44.0994 69.5918 43.403 66.9375 43.2734V35.7683ZM53.6931 38.8086C57.2031 36.9453 61.091 35.9051 65.0625 35.7668V43.2734C62.4083 43.403 59.8125 44.0994 57.4498 45.3157L53.6931 38.8086ZM66 45.125C75.3047 45.125 82.875 52.6953 82.875 62C82.875 71.3047 75.3047 78.875 66 78.875C56.6953 78.875 49.125 71.3047 49.125 62C49.125 52.6953 56.6953 45.125 66 45.125ZM65.0625 80.7266V88.2317C61.0897 88.1005 57.1995 87.0628 53.6892 85.1978L57.4498 78.6843C59.8125 79.9006 62.4083 80.597 65.0625 80.7266ZM66.9375 80.7266C69.5918 80.597 72.1875 79.9006 74.5502 78.6843L78.3108 85.1978C74.8005 87.0628 70.9103 88.1005 66.9375 88.2317V80.7266ZM47.2734 62.9375C47.403 65.5917 48.0994 68.1874 49.3157 70.5501L42.8022 74.3108C40.9372 70.8005 39.8994 66.9103 39.7683 62.9375H47.2734ZM42.7538 49.7949C42.7717 49.7607 42.791 49.7273 42.8091 49.6933L49.3157 53.4499C48.0994 55.8126 47.403 58.4083 47.2734 61.0625H39.7686C39.9082 57.1306 40.9283 53.2801 42.7538 49.7949ZM43.7427 75.9328L50.2563 72.1719C51.7015 74.4 53.6 76.2985 55.8281 77.7437L52.0675 84.2573C48.7055 82.1393 45.8609 79.2948 43.7429 75.9328H43.7427ZM84.5616 80.5617C83.1617 81.9629 81.6091 83.2026 79.9327 84.2574L76.1719 77.7437C78.4 76.2985 80.2985 74.4 81.7437 72.1719L88.2573 75.9325C87.2025 77.609 85.9629 79.1617 84.5616 80.5616V80.5617Z" fill="white"/>
<path d="M51.0251 62.2153C51.0736 62.4208 51.1901 62.604 51.3557 62.7351C51.5213 62.8662 51.7263 62.9375 51.9375 62.9375H53.4574C53.7836 62.9373 54.108 62.9851 54.4203 63.0795C54.7343 63.1748 55.0327 63.3156 55.306 63.4974C56.0617 64.0034 56.9373 64.3018 57.8448 64.3626L52.6486 66.5151L53.3661 68.2474L59.0229 65.9036L58.9574 66.0349C58.8778 66.1943 58.7674 66.3364 58.6327 66.4531C58.4979 66.5697 58.3414 66.6586 58.1722 66.7146C57.6973 66.8741 57.2657 67.1416 56.9115 67.496C56.5572 67.8504 56.2899 68.282 56.1305 68.757L55.1673 71.6469C55.1005 71.8472 55.1033 72.0643 55.1752 72.2629C55.2472 72.4615 55.3841 72.63 55.5638 72.741C55.7435 72.852 55.9554 72.8992 56.1652 72.8747C56.375 72.8503 56.5704 72.7557 56.7197 72.6063L57.7943 71.5317C58.0258 71.3001 58.2901 71.1039 58.5789 70.9495C58.8667 70.795 59.1759 70.6842 59.4963 70.6208C60.3902 70.4435 61.2216 70.0339 61.907 69.4333L59.7526 74.6339L61.4849 75.3514L63.8276 69.696L63.8732 69.8328C63.986 70.1738 63.9597 70.5455 63.8001 70.8672C63.5766 71.3161 63.4602 71.8107 63.4602 72.3121C63.4602 72.8136 63.5766 73.3082 63.8001 73.7571L65.1618 76.4817C65.2563 76.6704 65.4118 76.8217 65.603 76.9111C65.7942 77.0005 66.01 77.0228 66.2154 76.9743C66.4208 76.9258 66.6039 76.8094 66.7349 76.6439C66.866 76.4784 66.9374 76.2736 66.9375 76.0625V74.5426C66.9373 74.2164 66.9852 73.8919 67.0795 73.5796C67.1749 73.2656 67.3156 72.9673 67.4973 72.6941C68.0036 71.9377 68.3018 71.0613 68.3618 70.1531L70.5151 75.3514L72.2474 74.6339L69.9037 68.977L70.0347 69.0424C70.1941 69.122 70.3362 69.2324 70.4529 69.3671C70.5695 69.5019 70.6584 69.6583 70.7144 69.8275C70.8738 70.3026 71.1413 70.7343 71.4957 71.0886C71.85 71.4429 72.2817 71.7103 72.7568 71.8698L75.6465 72.833C75.8469 72.8999 76.0639 72.8971 76.2625 72.8251C76.4611 72.7532 76.6296 72.6163 76.7406 72.4366C76.8517 72.257 76.8988 72.0451 76.8744 71.8353C76.85 71.6255 76.7554 71.4301 76.6061 71.2808L75.5315 70.2062C75.2997 69.9746 75.1035 69.71 74.9492 69.421C74.7947 69.1333 74.6839 68.8241 74.6204 68.5038C74.4432 67.61 74.0337 66.7786 73.4332 66.0932L78.6336 68.2475L79.3512 66.5152L73.6958 64.1725L73.8324 64.1271C74.1736 64.0158 74.5448 64.042 74.867 64.2001C75.3159 64.4235 75.8105 64.5399 76.3119 64.5399C76.8133 64.5399 77.3079 64.4235 77.7567 64.2001L80.4813 62.8384C80.6701 62.7439 80.8215 62.5885 80.9109 62.3973C81.0004 62.206 81.0227 61.9902 80.9742 61.7848C80.9258 61.5793 80.8094 61.3962 80.6439 61.2652C80.4785 61.1341 80.2736 61.0627 80.0625 61.0625H78.5426C78.2164 61.0627 77.892 61.0148 77.5798 60.9205C77.2657 60.8252 76.9673 60.6844 76.6941 60.5026C75.9378 59.9965 75.0617 59.6983 74.1537 59.638L79.3514 57.4849L78.6339 55.7526L72.9771 58.0964L73.0426 57.9651C73.1223 57.8057 73.2326 57.6635 73.3674 57.5469C73.5021 57.4303 73.6586 57.3414 73.8278 57.2854C74.3028 57.1258 74.7343 56.8584 75.0886 56.504C75.4428 56.1496 75.7101 55.718 75.8695 55.243L76.8327 52.3531C76.8995 52.1527 76.8968 51.9357 76.8248 51.7371C76.7528 51.5385 76.6159 51.37 76.4362 51.259C76.2566 51.1479 76.0447 51.1008 75.8349 51.1253C75.6251 51.1497 75.4297 51.2443 75.2803 51.3937L74.2057 52.4683C73.9743 52.6999 73.7099 52.8961 73.4211 53.0505C73.1334 53.205 72.8241 53.3158 72.5037 53.3792C71.6098 53.5565 70.7784 53.9661 70.093 54.5667L72.2474 49.3661L70.5151 48.6486L68.1724 54.3039L68.1269 54.1672C68.014 53.8262 68.0403 53.4545 68.2 53.1328C68.4235 52.6839 68.5398 52.1893 68.5398 51.6878C68.5398 51.1864 68.4235 50.6918 68.2 50.2429L66.8383 47.5183C66.7437 47.3296 66.5883 47.1783 66.3971 47.0889C66.2059 46.9995 65.9901 46.9772 65.7846 47.0257C65.5792 47.0742 65.3961 47.1906 65.2651 47.3561C65.134 47.5216 65.0627 47.7264 65.0625 47.9375V49.4574C65.0627 49.7836 65.0149 50.1081 64.9205 50.4203C64.8252 50.7343 64.6844 51.0327 64.5027 51.3059C63.9964 52.0623 63.6983 52.9387 63.6382 53.8469L61.4849 48.6486L59.7526 49.3661L62.0964 55.023L61.9654 54.9576C61.8059 54.878 61.6638 54.7676 61.5472 54.6329C61.4305 54.4981 61.3417 54.3417 61.2857 54.1725C61.1262 53.6974 60.8588 53.2657 60.5044 52.9114C60.15 52.5571 59.7183 52.2897 59.2432 52.1302L56.3535 51.1669C56.1531 51.1001 55.9361 51.1029 55.7375 51.1748C55.5389 51.2468 55.3705 51.3837 55.2594 51.5633C55.1484 51.743 55.1012 51.9549 55.1256 52.1647C55.1501 52.3745 55.2446 52.5699 55.394 52.7192L56.4686 53.7938C56.7003 54.0254 56.8965 54.29 57.0509 54.579C57.2054 54.8667 57.3161 55.1758 57.3796 55.4962C57.5568 56.39 57.9663 57.2214 58.5668 57.9068L53.3664 55.7525L52.6488 57.4848L58.3042 59.8275L58.1677 59.8729C57.8264 59.9842 57.4553 59.958 57.133 59.7999C56.6842 59.5764 56.1896 59.4601 55.6882 59.4601C55.1867 59.4601 54.6922 59.5764 54.2433 59.7999L51.5187 61.1616C51.3298 61.256 51.1782 61.4114 51.0887 61.6026C50.9991 61.7938 50.9767 62.0097 51.0251 62.2153ZM71.625 62C71.625 63.1125 71.2951 64.2 70.677 65.1251C70.059 66.0501 69.1804 66.7711 68.1526 67.1968C67.1248 67.6226 65.9938 67.734 64.9026 67.5169C63.8115 67.2999 62.8092 66.7641 62.0225 65.9775C61.2359 65.1908 60.7001 64.1885 60.4831 63.0974C60.2661 62.0062 60.3775 60.8752 60.8032 59.8474C61.2289 58.8196 61.9499 57.9411 62.8749 57.323C63.8 56.7049 64.8875 56.375 66 56.375C67.4913 56.3767 68.9211 56.9698 69.9756 58.0244C71.0302 59.0789 71.6233 60.5087 71.625 62ZM59.1298 68.782C58.739 68.8594 58.3586 68.9819 57.996 69.1469C58.1594 68.8384 58.4351 68.6045 58.766 68.4934C59.4945 68.252 60.1123 67.7576 60.5074 67.0998C60.6793 67.2851 60.8606 67.4614 61.0513 67.6286C60.5644 68.2248 59.8849 68.6327 59.1298 68.782ZM65.9372 71.6541C65.7164 71.9855 65.5344 72.3411 65.3945 72.7139C65.2912 72.3799 65.3206 72.0189 65.4765 71.706C65.8184 71.0208 65.9062 70.2365 65.7245 69.4926C65.816 69.496 65.9074 69.4996 65.9998 69.4996C66.1609 69.4996 66.3203 69.4927 66.4788 69.4828C66.5519 70.2472 66.3607 71.0136 65.9372 71.6541ZM72.4933 69.2339C72.252 68.5054 71.7575 67.8876 71.0997 67.4926C71.285 67.3202 71.4615 67.1387 71.6287 66.9487C72.2249 67.4357 72.6327 68.1153 72.782 68.8706C72.8594 69.2613 72.9818 69.6418 73.1468 70.0044C72.8383 69.8408 72.6043 69.565 72.4933 69.2339ZM76.714 62.6055C76.38 62.7087 76.0191 62.6793 75.7062 62.5235C75.0198 62.1854 74.2368 62.0981 73.4928 62.2767C73.4961 62.1848 73.4998 62.0929 73.4998 62.0002C73.4998 61.8391 73.4929 61.6797 73.4828 61.5212C74.2472 61.4482 75.0135 61.6395 75.654 62.063C75.9855 62.2838 76.3411 62.4658 76.714 62.6055ZM72.8703 55.218C73.261 55.1406 73.6415 55.0181 74.004 54.8531C73.8406 55.1616 73.5649 55.3955 73.234 55.5066C72.5056 55.748 71.8878 56.2424 71.4926 56.9002C71.3203 56.715 71.139 56.5387 70.9487 56.3714C71.4356 55.7752 72.1151 55.3673 72.8703 55.218ZM66.0628 52.3459C66.2836 52.0145 66.4657 51.6589 66.6055 51.2861C66.7088 51.6201 66.6794 51.981 66.5235 52.2939C66.1817 52.9792 66.0938 53.7635 66.2755 54.5074C66.184 54.504 66.0926 54.5003 66.0003 54.5003C65.8391 54.5003 65.6797 54.5073 65.5212 54.5172C65.4481 53.7528 65.6393 52.9864 66.0628 52.3459ZM59.5068 54.7661C59.7481 55.4946 60.2425 56.1124 60.9004 56.5074C60.7151 56.6797 60.5385 56.8613 60.3714 57.0513C59.7751 56.5643 59.3673 55.8847 59.218 55.1294C59.1406 54.7387 59.0182 54.3582 58.8532 53.9956C59.1618 54.1592 59.3957 54.435 59.5068 54.7661ZM56.2936 61.4768C56.9801 61.8145 57.7631 61.9016 58.507 61.7228C58.5037 61.8148 58.5 61.9067 58.5 61.9994C58.5 62.1604 58.5069 62.3199 58.517 62.4785C57.7526 62.5514 56.9863 62.3601 56.3458 61.9366C56.0144 61.7158 55.6588 61.5337 55.286 61.3939C55.6201 61.2911 55.9809 61.3208 56.2936 61.4768Z" fill="white"/>
<path d="M67.875 63.875H64.125V65.75H67.875V63.875Z" fill="white"/>
<path d="M64.125 62.9375H66V60.125C66 60.0019 65.9758 59.88 65.9286 59.7662C65.8815 59.6525 65.8125 59.5491 65.7254 59.4621C65.3136 59.0493 64.7822 58.7769 64.2067 58.6834C63.6311 58.59 63.0408 58.6802 62.5195 58.9414L61.8304 59.2861L62.6689 60.963L63.3581 60.6185C63.4766 60.5591 63.6068 60.5266 63.7393 60.5233C63.8718 60.52 64.0033 60.546 64.1246 60.5994L64.125 62.9375Z" fill="white"/>
<path d="M69.75 59.1875H67.875V61.0625H69.75V59.1875Z" fill="white"/>
<path d="M73.5514 39.4746C73.5139 39.3204 73.4378 39.1784 73.3304 39.0616C73.2229 38.9449 73.0876 38.8574 72.9371 38.8072L71.1757 38.22C71.0269 38.1703 70.8681 38.1589 70.7137 38.1865C70.5593 38.2142 70.4144 38.2802 70.2921 38.3784C70.1698 38.4766 70.0741 38.6039 70.0138 38.7487C69.9535 38.8935 69.9304 39.051 69.9468 39.207L70.1725 41.375C70.1908 41.5524 70.2595 41.721 70.3703 41.8608C70.4811 42.0006 70.6295 42.1059 70.7981 42.1643C70.9667 42.2227 71.1484 42.2318 71.322 42.1905C71.4955 42.1492 71.6537 42.0592 71.7779 41.9312L73.3131 40.3503C73.4237 40.2365 73.5036 40.0964 73.5453 39.9432C73.587 39.79 73.5891 39.6288 73.5514 39.4746Z" fill="white"/>
<path d="M81.6641 48.0547C82.6997 48.0547 83.5391 47.2152 83.5391 46.1797C83.5391 45.1442 82.6997 44.3047 81.6641 44.3047C80.6286 44.3047 79.7891 45.1442 79.7891 46.1797C79.7891 47.2152 80.6286 48.0547 81.6641 48.0547Z" fill="white"/>
<path d="M88.5 54.5H86.625C86.1072 54.5 85.6875 54.9197 85.6875 55.4375V57.3125C85.6875 57.8303 86.1072 58.25 86.625 58.25H88.5C89.0178 58.25 89.4375 57.8303 89.4375 57.3125V55.4375C89.4375 54.9197 89.0178 54.5 88.5 54.5Z" fill="white"/>
<path d="M87.8555 69.6758C89.0331 69.6758 89.9877 68.8363 89.9877 67.8008C89.9877 66.7652 89.0331 65.9258 87.8555 65.9258C86.6779 65.9258 85.7232 66.7652 85.7232 67.8008C85.7232 68.8363 86.6779 69.6758 87.8555 69.6758Z" fill="white"/>
<path d="M81.9765 79.9525C83.0121 79.9525 83.8515 78.9979 83.8515 77.8203C83.8515 76.6427 83.0121 75.6881 81.9765 75.6881C80.941 75.6881 80.1015 76.6427 80.1015 77.8203C80.1015 78.9979 80.941 79.9525 81.9765 79.9525Z" fill="white"/>
<path d="M71.4298 81.6092C70.8601 81.6098 70.314 81.8364 69.9112 82.2392C69.5084 82.642 69.2819 83.1881 69.2812 83.7577V85.1248C69.2812 85.3735 69.38 85.6119 69.5558 85.7878C69.7317 85.9636 69.9701 86.0623 70.2187 86.0623H72.6405C72.8892 86.0623 73.1276 85.9636 73.3035 85.7878C73.4793 85.6119 73.578 85.3735 73.578 85.1248V83.7577C73.5774 83.1881 73.3509 82.6421 72.9482 82.2393C72.5454 81.8365 71.9994 81.6099 71.4298 81.6092ZM71.7032 84.1873H71.1562V83.7577C71.1562 83.6852 71.1851 83.6157 71.2363 83.5644C71.2876 83.5131 71.3571 83.4843 71.4296 83.4843C71.5022 83.4843 71.5717 83.5131 71.623 83.5644C71.6742 83.6157 71.703 83.6852 71.703 83.7577L71.7032 84.1873Z" fill="white"/>
<path d="M57.8947 85.5935H62.5822V83.7185H61.9626C62.0641 83.4411 62.0972 83.1432 62.059 82.8503C62.0209 82.5573 61.9126 82.2779 61.7433 82.0357C61.5741 81.7936 61.3489 81.5958 61.0869 81.4593C60.8249 81.3228 60.5339 81.2515 60.2384 81.2515C59.943 81.2515 59.6519 81.3228 59.3899 81.4593C59.128 81.5958 58.9028 81.7936 58.7335 82.0357C58.5643 82.2779 58.456 82.5573 58.4178 82.8503C58.3797 83.1432 58.4128 83.4411 58.5143 83.7185H57.8947V85.5935Z" fill="white"/>
<path d="M49.9063 75.5156C49.3367 75.5162 48.7906 75.7428 48.3878 76.1456C47.985 76.5484 47.7584 77.0945 47.7578 77.6641V79.0312C47.7578 79.2798 47.8566 79.5183 48.0324 79.6941C48.2082 79.8699 48.4466 79.9687 48.6953 79.9687H51.1172C51.3658 79.9687 51.6043 79.8699 51.7801 79.6941C51.9559 79.5183 52.0547 79.2798 52.0547 79.0312V77.6641C52.054 77.0945 51.8275 76.5484 51.4247 76.1456C51.022 75.7428 50.4759 75.5162 49.9063 75.5156ZM50.1797 78.0937H49.6328V77.6641C49.632 77.6277 49.6385 77.5915 49.6519 77.5577C49.6654 77.5238 49.6854 77.493 49.7108 77.467C49.7363 77.441 49.7667 77.4204 49.8003 77.4063C49.8338 77.3922 49.8698 77.3849 49.9062 77.3849C49.9426 77.3849 49.9787 77.3922 50.0122 77.4063C50.0458 77.4204 50.0762 77.441 50.1016 77.467C50.1271 77.493 50.1471 77.5238 50.1605 77.5577C50.1739 77.5915 50.1804 77.6277 50.1797 77.6641V78.0937Z" fill="white"/>
<path d="M42.7969 58.4453H45.2188C45.4674 58.4453 45.7059 58.3466 45.8817 58.1708C46.0575 57.9949 46.1563 57.7565 46.1563 57.5078V56.1406C46.1521 55.5736 45.9239 55.0311 45.5214 54.6317C45.119 54.2322 44.5749 54.008 44.0078 54.008C43.4408 54.008 42.8967 54.2322 42.4942 54.6317C42.0918 55.0311 41.8636 55.5736 41.8594 56.1406V57.5078C41.8594 57.7565 41.9581 57.9949 42.134 58.1708C42.3098 58.3466 42.5482 58.4453 42.7969 58.4453ZM43.7344 56.1406C43.7359 56.0691 43.7653 56.001 43.8164 55.9509C43.8676 55.9008 43.9363 55.8728 44.0078 55.8728C44.0794 55.8728 44.1481 55.9008 44.1992 55.9509C44.2503 56.001 44.2798 56.0691 44.2813 56.1406V56.5703H43.7344V56.1406Z" fill="white"/>
<path d="M42.0029 68.7488L43.5128 69.8606L45.1588 67.625H46.3125V65.75C46.3125 65.5014 46.2137 65.2629 46.0379 65.0871C45.8621 64.9113 45.6236 64.8125 45.375 64.8125H43.5V66.6875H43.5206L42.0029 68.7488Z" fill="white"/>
<path d="M51.3906 44.6562H48.5781C48.0603 44.6562 47.6406 45.076 47.6406 45.5938V46.5312C47.6406 47.049 48.0603 47.4688 48.5781 47.4688H51.3906C51.9084 47.4688 52.3281 47.049 52.3281 46.5312V45.5938C52.3281 45.076 51.9084 44.6562 51.3906 44.6562Z" fill="white"/>
<path d="M61.8087 41.3991C61.6814 41.1297 61.6166 40.835 61.619 40.5371C61.6214 40.2391 61.6911 39.9455 61.8227 39.6782L61.8422 39.6385C61.9121 39.4956 61.9445 39.3372 61.9363 39.1783C61.9282 39.0193 61.8797 38.8651 61.7954 38.7301C61.7112 38.5951 61.5939 38.4838 61.4548 38.4066C61.3156 38.3294 61.1591 38.2889 61 38.289H59.1375C58.9771 38.289 58.8195 38.3301 58.6796 38.4085C58.5397 38.4868 58.4222 38.5997 58.3384 38.7364C58.2545 38.8731 58.2072 39.029 58.2008 39.1892C58.1944 39.3494 58.2293 39.5086 58.3019 39.6515C58.4409 39.9263 58.5145 40.2294 58.5171 40.5373C58.5197 40.8452 58.4512 41.1496 58.3169 41.4267L58.2952 41.4712C58.2253 41.6141 58.193 41.7725 58.2012 41.9313C58.2095 42.0902 58.258 42.2444 58.3423 42.3793C58.4265 42.5142 58.5437 42.6255 58.6828 42.7026C58.822 42.7798 58.9784 42.8203 59.1375 42.8203H61C61.1578 42.8203 61.3131 42.7805 61.4515 42.7045C61.5898 42.6285 61.7068 42.5188 61.7914 42.3855C61.8761 42.2523 61.9257 42.0998 61.9357 41.9423C61.9458 41.7847 61.9158 41.6272 61.8487 41.4843L61.8087 41.3991Z" fill="white"/>
</g>
<defs>
<filter id="filter0_d_1015_48" x="0" y="0" width="132" height="132" filterUnits="userSpaceOnUse" color-interpolation-filters="sRGB">
<feFlood flood-opacity="0" result="BackgroundImageFix"/>
<feColorMatrix in="SourceAlpha" type="matrix" values="0 0 0 0 0 0 0 0 0 0 0 0 0 0 0 0 0 0 127 0" result="hardAlpha"/>
<feOffset dy="4"/>
<feGaussianBlur stdDeviation="8"/>
<feComposite in2="hardAlpha" operator="out"/>
<feColorMatrix type="matrix" values="0 0 0 0 0 0 0 0 0 0 0 0 0 0 0 0 0 0 0.12 0"/>
<feBlend mode="normal" in2="BackgroundImageFix" result="effect1_dropShadow_1015_48"/>
<feBlend mode="normal" in="SourceGraphic" in2="effect1_dropShadow_1015_48" result="shape"/>
</filter>
</defs>
</svg>
